<?xml version="1.0" encoding="utf-8"?>
<!-- Generator: Adobe Illustrator 25.0.0, SVG Export Plug-In . SVG Version: 6.00 Build 0)  -->
<svg version="1.1" id="Layer_1" xmlns="http://www.w3.org/2000/svg" xmlns:xlink="http://www.w3.org/1999/xlink" x="0px" y="0px"
	 viewBox="0 0 652.2 659.8" style="enable-background:new 0 0 652.2 659.8;" xml:space="preserve">
<style type="text/css">
	.st0{fill:#333333;fill-opacity:0;}
	.st1{fill:#090909;}
	.st2{fill:#F16B5F;}
</style>
<g transform="translate(81.65499877929688,77.41045761108398)">
	<g transform="matrix(1,0,0,1,58.345001220703125,0)">
		<g>
			<rect x="-139.9" y="-77.4" class="st0" width="652" height="659.7"/>
			<path class="st1" d="M374.8-22.7c-5.5,2.7-11.7,3.6-17.7,2.6H194.3C43.5-21.6-80,99.3-81.5,250.1c-0.1,6.2,0.1,12.4,0.4,18.5
				c0.4,11.5-1.1,16.7-14.1,15.2c-10.1-1-20.3-1-30.5,0c-10.3,0.9-12.9-3.3-13.7-13.1c-9.4-152.3,95-297.6,243.6-336.3
				C199.9-90.5,289.3-75.9,374.8-22.7z"/>
			<path class="st2" d="M0.1,524.8c57.1,0,114.5-0.6,171.2,0c137.7,1.8,250.5-88.1,278.3-222.6c4.6-22.8,5.9-46.2,4.1-69.4
				c-0.7-10,2.6-12.9,12.1-12.4c11.1,0.7,22.3,0.7,33.4,0c9.9-0.6,12.5,4,12.8,12.9c3.5,112.6-36.8,205.9-124.9,276.2
				c-109.1,88-261.9,97.2-380.7,22.9c-2.4-1.5-4.6-3.2-6.9-4.8L0.1,524.8z"/>
			<path class="st1" d="M468.6,71.7h-18.5c-86.2,0-172.5-0.4-258.7,0c-82.5,0-154.5,55.8-175.1,135.6c-6,20.5-7.5,42.1-4.5,63.3
				c1.5,9.7,0,14.2-11.2,13.2c-11.1-0.9-22.3-0.9-33.4,0c-10.2,0.8-13.1-3.2-14-12.9C-53.9,171.3,1.5,77.7,92.3,36.1
				c31.4-14.3,65.5-21.7,100-21.8h216.5c7.7-0.6,15.3,2.5,20.4,8.4C443.7,37.9,456.9,54.3,468.6,71.7L468.6,71.7z"/>
			<path class="st2" d="M56,432.2h120.7c99.2,3.1,182.1-74.7,185.2-173.9c0.2-5.8,0.1-11.7-0.3-17.5c-1-20.2-1-20.2,19.2-20.2
				c39.5,0,39.5,0,38.8,39.3C417.9,373.8,324.9,476,212,487.7c-55.6,5.7-111.4,1.3-167.3,2.5h-81.5c-5.3,1.1-10.8-0.2-15.1-3.4
				c-14.7-14.1-27.9-29.6-39.4-46.5c-7.4-11.2,3.3-8,7.6-8C-37.1,432,9.8,432.1,56,432.2z"/>
			<path class="st1" d="M344.5,167.7H197.6c-61.6,0-99.2,45.4-87.6,105.7c1.8,8.8,0,11.1-8.8,10.7c-11.1-1-22.3-1-33.4,0
				c-13.1,1.7-16.4-4.4-17.6-15.7c-9.9-71.8,45.5-145.5,117.7-155.6c10.1-1.5,20.2-2.3,30.4-2.3c93.1,0,186.2,0,279.3-0.4
				c8.8-1.5,17.2,4.1,19.3,12.8c4.6,14.6,13.1,27.9,13.5,44c-13.9,1.6-28,2-42,1.1C426.9,167.8,385.7,167.6,344.5,167.7L344.5,167.7
				z"/>
			<path class="st2" d="M30.5,336.5h148.2c46,1.8,84.8-34,86.7-80c0.3-7.7-0.5-15.5-2.3-23c-1.9-9.5-0.6-13.6,10-12.9
				c10.1,1,20.3,1,30.5,0c14.3-1.8,17.6,5.2,19.5,17.6c6.6,73.1-43.2,139.3-115.2,153.2c-10,1.7-20.1,2.6-30.3,2.6h-281.9
				c-9.3,1.6-18.1-4.4-20.2-13.6c-3.3-10.6-7.6-21-11.5-31.4s-2-13.2,9.6-12.7H30.5V336.5L30.5,336.5z"/>
		</g>
	</g>
</g>
</svg>
