<?xml version="1.0" encoding="utf-8"?>
<!-- Generator: Adobe Illustrator 25.0.0, SVG Export Plug-In . SVG Version: 6.00 Build 0)  -->
<svg version="1.1" id="Layer_1" xmlns="http://www.w3.org/2000/svg" xmlns:xlink="http://www.w3.org/1999/xlink" x="0px" y="0px"
     viewBox="0 0 2649.2 659.8" style="enable-background:new 0 0 2649.2 659.8;" xml:space="preserve">
<style type="text/css">
	.st0{fill:#fff;fill-opacity:0;}
	.st1{fill:#090909;}
	.st2{fill:#F16B5F;}
	.st3{fill:#fff;}
</style>
    <g transform="translate(81.65499877929688,77.41045761108398)">
	<g transform="matrix(1,0,0,1,58.345001220703125,0)">
		<g>
			<rect x="-139.9" y="-77.4" class="st0" width="652" height="659.7"/>
            <path class="st1" d="M374.8-22.7c-5.5,2.7-11.7,3.6-17.7,2.6H194.3C43.5-21.6-80,99.3-81.5,250.1c-0.1,6.2,0.1,12.4,0.4,18.5
				c0.4,11.5-1.1,16.7-14.1,15.2c-10.1-1-20.3-1-30.5,0c-10.3,0.9-12.9-3.3-13.7-13.1c-9.4-152.3,95-297.6,243.6-336.3
				C199.9-90.5,289.3-75.9,374.8-22.7z"/>
            <path class="st2" d="M0.1,524.8c57.1,0,114.5-0.6,171.2,0c137.7,1.8,250.5-88.1,278.3-222.6c4.6-22.8,5.9-46.2,4.1-69.4
				c-0.7-10,2.6-12.9,12.1-12.4c11.1,0.7,22.3,0.7,33.4,0c9.9-0.6,12.5,4,12.8,12.9c3.5,112.6-36.8,205.9-124.9,276.2
				c-109.1,88-261.9,97.2-380.7,22.9c-2.4-1.5-4.6-3.2-6.9-4.8L0.1,524.8z"/>
            <path class="st1" d="M468.6,71.7h-18.5c-86.2,0-172.5-0.4-258.7,0c-82.5,0-154.5,55.8-175.1,135.6c-6,20.5-7.5,42.1-4.5,63.3
				c1.5,9.7,0,14.2-11.2,13.2c-11.1-0.9-22.3-0.9-33.4,0c-10.2,0.8-13.1-3.2-14-12.9C-53.9,171.3,1.5,77.7,92.3,36.1
				c31.4-14.3,65.5-21.7,100-21.8h216.5c7.7-0.6,15.3,2.5,20.4,8.4C443.7,37.9,456.9,54.3,468.6,71.7L468.6,71.7z"/>
            <path class="st2" d="M56,432.2h120.7c99.2,3.1,182.1-74.7,185.2-173.9c0.2-5.8,0.1-11.7-0.3-17.5c-1-20.2-1-20.2,19.2-20.2
				c39.5,0,39.5,0,38.8,39.3C417.9,373.8,324.9,476,212,487.7c-55.6,5.7-111.4,1.3-167.3,2.5h-81.5c-5.3,1.1-10.8-0.2-15.1-3.4
				c-14.7-14.1-27.9-29.6-39.4-46.5c-7.4-11.2,3.3-8,7.6-8C-37.1,432,9.8,432.1,56,432.2z"/>
            <path class="st1" d="M344.5,167.7H197.6c-61.6,0-99.2,45.4-87.6,105.7c1.8,8.8,0,11.1-8.8,10.7c-11.1-1-22.3-1-33.4,0
				c-13.1,1.7-16.4-4.4-17.6-15.7c-9.9-71.8,45.5-145.5,117.7-155.6c10.1-1.5,20.2-2.3,30.4-2.3c93.1,0,186.2,0,279.3-0.4
				c8.8-1.5,17.2,4.1,19.3,12.8c4.6,14.6,13.1,27.9,13.5,44c-13.9,1.6-28,2-42,1.1C426.9,167.8,385.7,167.6,344.5,167.7L344.5,167.7
				z"/>
            <path class="st2" d="M30.5,336.5h148.2c46,1.8,84.8-34,86.7-80c0.3-7.7-0.5-15.5-2.3-23c-1.9-9.5-0.6-13.6,10-12.9
				c10.1,1,20.3,1,30.5,0c14.3-1.8,17.6,5.2,19.5,17.6c6.6,73.1-43.2,139.3-115.2,153.2c-10,1.7-20.1,2.6-30.3,2.6h-281.9
				c-9.3,1.6-18.1-4.4-20.2-13.6c-3.3-10.6-7.6-21-11.5-31.4s-2-13.2,9.6-12.7H30.5L30.5,336.5L30.5,336.5z"/>
		</g>
	</g>
        <g transform="translate(0,67.7090835571289)">
		<g transform="matrix(1,0,0,1,0,0)">
			<g transform="scale(1)">
				<g>
					<path class="st3" d="M717.6,329.7h-70.2v-281h140.5c33.2,0,57.6,8.7,73.3,26.2s23.6,40.9,23.6,70.2l0,0
						c0,18.9-4.8,35.5-14.5,49.8c-9.7,14.3-22.7,24.9-39.2,31.8l0,0c4.1,3.2,7.3,6.8,9.8,10.8c2.5,3.9,5.1,9.3,8,16.3l0,0l33.1,76
						h-73.1l-31.4-71.6c-2.7-6.1-6-10.5-10.1-13.3s-9.9-4.1-17.4-4.1l0,0h-32.4C717.6,240.8,717.6,329.7,717.6,329.7z M717.6,102.8
						v83.8h51.9c13.7,0,24.4-3.4,32.1-10.3c7.8-6.8,11.6-17.2,11.6-31.2l0,0c0-28.2-13.5-42.3-40.6-42.3l0,0H717.6z M965.6,334
						L965.6,334c-13.1,0-25.3-2.3-36.5-7c-11.2-4.6-20.1-11.8-26.8-21.6c-6.7-9.7-10-21.8-10-36.4l0,0c0-21.2,7.2-37.9,21.6-50
						c14.3-12.1,35.9-18.1,64.8-18.1l0,0h57.6v-4.8c0-10.4-3.5-17.9-10.4-22.5c-7-4.5-20.1-6.7-39.3-6.7l0,0
						c-23.5,0-46.7,3.6-69.3,10.9l0,0v-45.3c10.1-4.1,22.6-7.4,37.3-10.1c14.7-2.6,30.2-3.9,46.5-3.9l0,0c32,0,57.1,6.6,75.3,19.7
						c18.2,13.1,27.3,33.9,27.3,62.4l0,0v129.2h-61.6l-3.5-17.5c-7.5,7-17.2,12.4-29,16.2C997.6,332.2,983,334,965.6,334z
						 M987.8,290.9L987.8,290.9c11.1,0,20.7-1.9,28.8-5.8c8.2-3.8,14.7-8.5,19.7-14.3l0,0v-29.2h-49.8c-20.6,0-31,8.3-31,24.9l0,0
						c0,7.5,2.6,13.5,7.8,17.8C968.6,288.7,976.8,290.9,987.8,290.9z M1254.9,334L1254.9,334c-36.9,0-65.8-9-86.6-27.1
						c-20.8-18-31.2-45-31.2-80.7l0,0c0-36.4,10.8-63.4,32.5-81.2c21.7-17.7,50.5-26.6,86.6-26.6l0,0c15.1,0,28.3,1.1,39.6,3.3
						c11.2,2.2,22,5.8,32.5,10.8l0,0v49.8c-16.3-7.9-35.4-11.8-57.2-11.8l0,0c-20.4,0-35.9,4.1-46.5,12.3c-10.6,8.1-16,22.6-16,43.6
						l0,0c0,19.5,5,33.7,14.9,42.6c9.9,8.8,25.6,13.3,47.2,13.3l0,0c21.2,0,40.6-4.3,58-13l0,0v51.9c-10.5,4.6-21.8,8-33.8,10
						C1282.8,333,1269.4,334,1254.9,334z M1475.3,334L1475.3,334c-36.1,0-65-8.9-86.8-26.8c-21.8-17.9-32.7-44.9-32.7-81l0,0
						c0-32.9,9-59.1,27.1-78.6s45.1-29.2,81.2-29.2l0,0c32.9,0,58.4,8.4,76.4,25.3c18,16.9,27.1,39.6,27.1,68.1l0,0v37.1h-146.9
						c3.2,13.7,10.7,23.2,22.5,28.6c11.8,5.4,27.9,8,48.2,8l0,0c11.4,0,22.9-1,34.7-3c11.8-2,21.6-4.6,29.4-7.8l0,0v45.9
						c-9.9,4.6-21.6,8-35.3,10.2C1506.5,333,1491.6,334,1475.3,334z M1420.7,208.4L1420.7,208.4h85.5v-9.2c0-10.1-3-18.2-9.1-24.2
						c-6.1-5.9-16.4-8.9-31-8.9l0,0c-16.9,0-28.7,3.4-35.3,10.2C1424.1,183.1,1420.7,193.9,1420.7,208.4z"/>
				</g>
                <g transform="translate(87.65999603271484,0)">
					<g transform="scale(1)">
						<path class="st3" d="M1661.1,329.7h-41.8l-106.9-281h37.1l90.3,244.8l90.8-244.8h37.1L1661.1,329.7z M1842.7,334L1842.7,334
							c-13.1,0-25.2-2.3-36.2-7c-11.1-4.6-20-11.6-26.6-20.8c-6.7-9.1-10.1-20.7-10.1-34.7l0,0c0-18.9,6.3-34.4,18.8-46.5
							s32.9-18.1,61.1-18.1l0,0h72v-12.6c0-11.4-1.5-20.4-4.6-27.1c-3-6.7-8.8-11.5-17.3-14.5c-8.4-2.9-20.8-4.3-37.1-4.3l0,0
							c-12.5,0-24.6,1-36.3,3c-11.6,2.1-22.5,4.9-32.7,8.4l0,0v-29.7c9.3-3.5,20.3-6.4,32.9-8.6c12.7-2.2,26.3-3.3,40.9-3.3l0,0
							c29.4,0,51.4,6,66.1,17.9c14.7,12,22.1,31.3,22.1,58l0,0v135.3h-30.1l-2.6-23.6c-9.1,9.3-20,16.3-32.7,21
							C1877.5,331.7,1861.6,334,1842.7,334z M1851.8,304.8L1851.8,304.8c15.1,0,28.5-2.7,40.2-8c11.6-5.4,21.5-12.8,29.7-22.1l0,0
							v-40.2h-71.2c-16.3,0-27.9,3.1-34.9,9.2c-7,6.1-10.4,15.4-10.4,27.9l0,0c0,12.5,4.2,21.2,12.6,26
							C1826.3,302.4,1837.6,304.8,1851.8,304.8z M2087.5,334L2087.5,334c-24.7,0-43.4-6.8-56.1-20.5c-12.7-13.6-19-33.5-19-59.8l0,0
							V122.8h35.9V255c0,17.2,4.3,29.8,12.8,38c8.5,8.1,21.8,12.2,39.9,12.2l0,0c12.8,0,24.9-2.3,36.3-7c11.3-4.6,21-11,29.2-19.2
							l0,0V122.8h35.8v206.9H2170l-2.2-23.6c-9.9,8.2-21.7,14.9-35.3,20.1C2118.8,331.4,2103.8,334,2087.5,334z M2308.3,334
							L2308.3,334c-14,0-25-3.7-32.9-11.1c-8-7.5-12.1-20.1-12.1-37.8l0,0V35.5h35.9v245.7c0,8.8,1.4,14.7,4.3,17.9
							c2.9,3.2,7.4,4.8,13.5,4.8l0,0c6.7,0,13.3-0.9,19.7-2.6l0,0v28.4c-4.6,1.7-9.3,2.9-13.9,3.5
							C2318.1,333.8,2313.2,334,2308.3,334z M2442.7,334L2442.7,334c-20.4,0-35.7-5.4-46.1-16.3c-10.3-10.9-15.4-26.2-15.4-45.6l0,0
							V151.2h-31.4v-28.4h31.4v-51l35.8-11v62h57.2l-2.2,28.4h-55v119.2c0,12.5,2.8,21.5,8.5,26.8c5.7,5.4,15.6,8,29.6,8l0,0
							c7.5,0,15.8-1.4,24.8-4.3l0,0V328C2469.1,332,2456.7,334,2442.7,334z"/>
					</g>
				</g>
			</g>
		</g>
	</g>
</g>
</svg>
